<?xml version="1.0" encoding="utf-8"?>
<!-- Generator: Adobe Illustrator 27.2.0, SVG Export Plug-In . SVG Version: 6.00 Build 0)  -->
<svg version="1.1" id="Layer_1" xmlns="http://www.w3.org/2000/svg" xmlns:xlink="http://www.w3.org/1999/xlink" x="0px" y="0px"
	 viewBox="0 0 512 512" style="enable-background:new 0 0 512 512;" xml:space="preserve">
<style type="text/css">
	.st0{fill:#242265;}
	.st1{fill:#C0FC1A;}
</style>
<g>
	<path class="st0" d="M0,230.28l0.3,52.87c0.17,26.85,14.63,51.58,37.96,64.88l45.93,26.16c23.33,13.29,51.98,13.12,75.15-0.44
		l45.63-26.71c23.18-13.56,37.36-38.46,37.19-65.32l-0.3-52.87c-0.16-26.85-14.63-51.57-37.96-64.86l-45.93-26.19
		c-23.33-13.29-51.98-13.12-75.15,0.44l-45.63,26.71C14.03,178.53-0.15,203.43,0,230.28"/>
	<path class="st0" d="M496.21,191.58v28.73c0,7.07,0.14,12.59,0.44,18.52c-5.53-6.05-13.39-9.42-21.58-9.26
		c-18.08,0-31.11,14.04-31.11,33.44c0,20.4,12.59,34.3,31.11,34.3c9.12,0.3,17.82-3.88,23.27-11.19l2.73,9.69H512V191.58H496.21z
		 M369.25,197.47v98.34h63.26v-15.05h-46.16V253.2h39.22v-14.61h-39.22v-26.06h44.85v-15.06H369.25z M355.92,231.23l-16.58,0.09
		l-12.6,32.99c-1.17,3.93-2.59,7.84-3.9,12.59c-1.17-4.29-2.63-8.49-4.35-12.59l-13.66-32.99h-17.1v0.44l27.67,62.44l-14.34,33.16
		v0.27h16.8l38.05-95.87V231.23z M478.27,243.55c11.14,0,18.52,8.09,18.52,19.97c0,11.94-7.51,20.13-18.52,20.13
		c-11.01,0-18.39-8.35-18.39-20.13C459.88,251.75,467.12,243.55,478.27,243.55z"/>
	<path class="st1" d="M193.26,280.24c-8.8-4.15-17.51,1.39-22.15,8.88c-2.16,3.92-4.53,7.73-7.07,11.42
		c-3.01,3.81-6.72,7-10.93,9.42l-0.36,0.22l-0.36,0.19c-4.2,2.48-8.84,4.13-13.66,4.86c-4.48,0.57-8.96,0.25-13.44,0.41h-8.06
		c-4.48-0.16-8.96,0.16-13.44-0.41c-4.82-0.74-9.46-2.39-13.66-4.86l-0.36-0.19l-0.36-0.22c-4.2-2.43-7.9-5.63-10.93-9.42
		c-2.59-3.68-4.99-7.49-7.18-11.42c-0.27-0.41-3.99-6.64-3.99-6.64c-2.1-3.96-4.62-7.68-6.36-11.85c-1.81-4.54-2.73-9.38-2.73-14.26
		c-0.04-0.27-0.04-0.55,0-0.82c0-4.88,0.93-9.72,2.73-14.26c1.86-4.07,4.26-7.89,6.36-11.85c0,0,5.9-9.92,6.45-10.93
		c2.13-4.14,4.9-7.93,8.19-11.23c2.42-2.05,5.01-3.88,7.76-5.46c2.78-1.57,5.71-2.88,8.74-3.91c4.5-1.28,9.17-1.84,13.85-1.67
		c8.6,0,18.6-1.15,22.56-10.22c3.06-7.38-0.19-15.87-7.4-19.31c-8.8-4.15-17.51,1.42-22.15,8.88c-2.38,3.82-4.34,7.84-7.07,11.45
		c-3.02,3.79-6.73,6.99-10.93,9.42l-0.36,0.19l-0.36,0.22c-4.21,2.45-8.84,4.09-13.66,4.83c-4.48,0.57-8.93,0.27-13.44,0.41
		c-2.81,0.1-5.58,0.67-8.19,1.69c-3.01,0.86-5.66,2.68-7.54,5.19c-2.27,3.11-3.25,6.98-2.73,10.79c0.79,4.94,2.59,9.67,5.3,13.88
		c2.47,3.92,4.32,8.21,5.46,12.7c0.64,3.14,0.97,6.33,0.98,9.53c-0.01,3.2-0.34,6.4-0.98,9.53c-1.15,4.49-2.99,8.78-5.46,12.7
		c-3.13,4.66-5.01,10.05-5.46,15.65v0.33c-0.05,3.09,0.88,6.12,2.65,8.66c2.01,2.72,4.91,4.66,8.19,5.46
		c4.06,1.14,8.27,1.65,12.48,1.53c4.65-0.22,9.31,0.3,13.79,1.53c3.04,1.01,5.96,2.32,8.74,3.91c2.75,1.57,5.35,3.4,7.76,5.46
		c3.3,3.28,6.07,7.06,8.19,11.2c2.53,5.09,6.34,9.43,11.06,12.59l0.3,0.16c0.73,0.4,1.49,0.74,2.27,1.01h0.41
		c1.4,0.43,2.85,0.65,4.32,0.66c1.54,0.11,3.09-0.03,4.59-0.41h0.44c0.78-0.28,1.54-0.62,2.27-1.01l0.3-0.16
		c4.69-3.21,8.45-7.59,10.93-12.7c2.13-4.14,4.9-7.91,8.19-11.2c2.42-2.06,5.03-3.89,7.78-5.46c2.77-1.58,5.69-2.89,8.71-3.91
		c4.5-1.23,9.16-1.75,13.82-1.53c8.6,0,18.63-1.17,22.56-10.22C203.82,292.27,200.55,283.68,193.26,280.24"/>
	<path class="st1" d="M194.24,230.94c7.01-4.12,9.34-13.15,5.22-20.15c-4.12-7.01-13.15-9.34-20.15-5.22
		c-7.01,4.12-9.34,13.15-5.22,20.15c4.1,6.97,13.05,9.32,20.05,5.28L194.24,230.94"/>
</g>
</svg>
